<svg id="Layer_1" data-name="Layer 1" xmlns="http://www.w3.org/2000/svg" xmlns:xlink="http://www.w3.org/1999/xlink" viewBox="0 0 250 60"><defs><style>.cls-1{fill:none;}.cls-2{clip-path:url(#clip-path);}</style><clipPath id="clip-path"><polygon class="cls-1" points="-929.16 -2385.1 50.37 -2385.1 50.37 -1632.94 -1019.17 -1632.94 -1019.17 -2032.58 -929.16 -2035.08 -929.16 -2385.1"/></clipPath></defs><title>Terrene_Home page_desktop</title><g id="Layer_149" data-name="Layer 149"><g class="cls-2"><image width="1921" height="5585" transform="translate(-1870.63 -2490.94)" xlink:href="../../jpg/01/Terrene_Home%20page-01.jpg"/></g></g><g id="Layer_6" data-name="Layer 6"><path d="M23.27,15.77v11.6a10.34,10.34,0,0,1-.64,4.18,4.93,4.93,0,0,1-2.37,2.25,9.58,9.58,0,0,1-4.41.88,9.51,9.51,0,0,1-4.28-.79,5.36,5.36,0,0,1-2.39-2.25,9.3,9.3,0,0,1-.79-4.27V15.77h4.73v11.6a6.89,6.89,0,0,0,.25,2.21,2.07,2.07,0,0,0,1,1.13,3.89,3.89,0,0,0,1.86.41,4.18,4.18,0,0,0,2-.41,2,2,0,0,0,1-1.09,7,7,0,0,0,.26-2.28V15.77Z"/><path d="M41.06,15.77V34.4H37.33L30,21.81a4.07,4.07,0,0,0,0,.63,7.34,7.34,0,0,1,.05.81V34.4H26.72V15.77h4.71l6.33,11c0-.54-.08-.95-.08-1.24V15.77Z"/><path d="M44.79,15.77h5.68a10.93,10.93,0,0,1,5.19,1,9.05,9.05,0,0,1,3.05,3A9.41,9.41,0,0,1,60.08,25a9.71,9.71,0,0,1-2.36,6.68,8.2,8.2,0,0,1-6.5,2.69H44.83Zm4.28,3.42V30.9h1.8a3.92,3.92,0,0,0,3.54-1.78,7.44,7.44,0,0,0,1.16-4.18,7.32,7.32,0,0,0-.66-3.16,4.34,4.34,0,0,0-1.64-2,4.43,4.43,0,0,0-2.36-.58Z"/><path d="M76.22,19.32H67.35v3.83h7v3.5h-7v4.07h8.87v3.69H62.91V15.77H76.22Z"/><path d="M83.23,27V34.4H78.84V15.77H87a10.29,10.29,0,0,1,3.65.52A4.73,4.73,0,0,1,93,18.22a5.69,5.69,0,0,1,.91,3.13,5,5,0,0,1-3.23,4.81l3.44,8.21H89.22L86.36,27Zm0-7.93v4.75h2.68a6.74,6.74,0,0,0,1.9-.18,2.06,2.06,0,0,0,1.06-.82,2.42,2.42,0,0,0,.45-1.45,2.25,2.25,0,0,0-.45-1.4,1.9,1.9,0,0,0-1-.75,10.06,10.06,0,0,0-2-.15Z"/><path d="M119.11,15.77,114.43,34.4h-4.29l-3.06-12.32-3,12.32H99.87L95.08,15.77h4.45l2.57,11.37c0,.05.06.25.15.6q.06.18.15.57l3-12.54h4l3.13,12.54q.09-.36.27-1.17l2.64-11.37Z"/><path d="M125.55,27V34.4h-4.39V15.77h8.19a10.32,10.32,0,0,1,3.65.52,4.73,4.73,0,0,1,2.28,1.93,5.69,5.69,0,0,1,.91,3.13A5,5,0,0,1,133,26.16l3.43,8.21h-4.85L128.66,27Zm0-7.93v4.75h2.68a6.74,6.74,0,0,0,1.9-.18,2.1,2.1,0,0,0,1.06-.82,2.36,2.36,0,0,0,.46-1.45,2.33,2.33,0,0,0-.46-1.4,2,2,0,0,0-1-.75,10,10,0,0,0-2.05-.15Z"/><path d="M143.88,15.77V34.4h-4.35V15.77Z"/><path d="M159.42,15.77v3.68h-4.61v15h-4.42V19.45h-4.64V15.77Z"/><path d="M165.65,15.77V34.4h-4.36V15.77Z"/><path d="M183.71,15.77V34.4H180l-7.3-12.59a4.07,4.07,0,0,0,0,.63,7.34,7.34,0,0,1,.05.81V34.4h-3.4V15.77h4.71l6.33,11c0-.54-.08-.95-.08-1.24V15.77Z"/><path d="M202,24.43v10h-2a14.66,14.66,0,0,0-.62-2.15,6.27,6.27,0,0,1-5.08,2.43,6.8,6.8,0,0,1-5.68-2.61,10.65,10.65,0,0,1-2-6.73,11.15,11.15,0,0,1,2.16-7.16,7.88,7.88,0,0,1,10.89-.95A7.5,7.5,0,0,1,202,21.88l-4.15.55c-.34-2.26-1.4-3.39-3.2-3.39a2.92,2.92,0,0,0-2.68,1.61,9.43,9.43,0,0,0-.91,4.56,8.12,8.12,0,0,0,1,4.38,3.32,3.32,0,0,0,4.91.77,3,3,0,0,0,.91-2.45h-3.5V24.43Z"/><path d="M209.24,34.4H205V30.18h4.22Z"/><path d="M221.74,15.77l5.84,18.63h-4.69l-1.15-3.84h-6l-1.16,3.84h-3.83l6-18.63Zm-5,11.35h4l-2-6.53Z"/><path d="M233.94,15.77V34.4h-4.36V15.77Z"/><path d="M8.56,42v2H7.3V38.62H9.41a2.86,2.86,0,0,1,1.08.15,1.58,1.58,0,0,1,1,1.49,2,2,0,0,1-.16.77,1.32,1.32,0,0,1-.45.59,1.66,1.66,0,0,1-.56.29,3.91,3.91,0,0,1-.84.06Zm0-1h.81a.89.89,0,0,0,.66-.22.69.69,0,0,0,.18-.49.63.63,0,0,0-.21-.52.89.89,0,0,0-.63-.21H8.52Z"/><path d="M14.14,44a2,2,0,0,1-1.68-.82,3.26,3.26,0,0,1-.59-2,3.15,3.15,0,0,1,.6-1.95,2,2,0,0,1,1.71-.79,1.88,1.88,0,0,1,1.68.84,3.59,3.59,0,0,1,0,3.88A2,2,0,0,1,14.14,44Zm0-4.47c-.66,0-1,.58-1,1.73s.32,1.73,1,1.73.95-.57.95-1.73S14.81,39.57,14.17,39.57Z"/><path d="M23.55,38.62,22.21,44H21l-.88-3.53L19.25,44H18l-1.37-5.34h1.28l.74,3.26a.85.85,0,0,0,0,.17l0,.17.86-3.6h1.15l.92,3.6a2.93,2.93,0,0,1,.07-.34l.76-3.26Z"/><path d="M28,39.63H25.41v1.1h2v1h-2v1.17H28V44H24.14V38.62H28Z"/><path d="M30,41.85V44H28.71V38.62h2.35a2.82,2.82,0,0,1,1,.15,1.35,1.35,0,0,1,.65.55,1.56,1.56,0,0,1,.26.91,1.42,1.42,0,0,1-.91,1.37l1,2.36H31.71l-.84-2.11Zm0-2.28v1.37h.77a1.94,1.94,0,0,0,.54,0,.69.69,0,0,0,.44-.65.68.68,0,0,0-.13-.4.53.53,0,0,0-.29-.22,2.94,2.94,0,0,0-.59,0Z"/><path d="M37.8,39.63H35.25v1.1h2v1h-2v1.17H37.8V44H34V38.62H37.8Z"/><path d="M38.55,38.62h1.63a2.91,2.91,0,0,1,1.48.28,2.45,2.45,0,0,1,.88.87,2.67,2.67,0,0,1,.39,1.51,2.79,2.79,0,0,1-.68,1.91,2.31,2.31,0,0,1-1.86.77H38.56Zm1.23,1V43h.51a1.13,1.13,0,0,0,1-.52,2.09,2.09,0,0,0,.33-1.2,2.07,2.07,0,0,0-.19-.91,1.25,1.25,0,0,0-.46-.58,1.42,1.42,0,0,0-.67-.17Z"/><path d="M45.75,38.62h2.49a2.31,2.31,0,0,1,1,.16,1.36,1.36,0,0,1,.55.46A1.24,1.24,0,0,1,50,40a1.17,1.17,0,0,1-1,1.19,1.34,1.34,0,0,1,1.13,1.32,1.38,1.38,0,0,1-.46,1,2.05,2.05,0,0,1-1.47.45H45.77Zm1.24,1v1.17h.95c.34,0,.56-.07.65-.21a.62.62,0,0,0,.14-.39.61.61,0,0,0-.11-.35.43.43,0,0,0-.24-.18,2.28,2.28,0,0,0-.52,0Zm0,2.12V43h1a1.14,1.14,0,0,0,.7-.17.59.59,0,0,0,.2-.48.61.61,0,0,0-.2-.46.92.92,0,0,0-.64-.19Z"/><path d="M54.75,38.62l-1.68,3.09V44H51.83V41.71l-1.69-3.09H51.6l1,2,1-2Z"/><polygon points="79.35 38.58 75.49 38.58 75.49 43.99 79.35 43.99 79.35 42.94 76.75 42.94 76.75 41.74 78.8 41.74 78.8 40.73 76.75 40.73 76.75 39.63 79.35 39.63 79.35 38.58"/><polygon points="82.94 38.58 82.94 41.76 81.13 38.58 79.75 38.58 79.75 43.99 80.73 43.99 80.73 40.35 80.77 40.35 82.84 43.99 83.92 43.99 83.92 38.58 82.94 38.58"/><polygon points="88.5 38.58 84.63 38.58 84.63 43.99 88.5 43.99 88.5 42.94 85.9 42.94 85.9 41.74 87.95 41.74 87.95 40.73 85.9 40.73 85.9 39.63 88.5 39.63 88.5 38.58"/><polygon points="57.49 38.58 57.49 39.65 58.86 39.65 58.86 43.99 60.12 43.99 60.12 39.65 61.48 39.65 61.48 38.58 57.49 38.58"/><polygon points="65.83 38.58 61.97 38.58 61.97 43.99 65.83 43.99 65.83 42.94 63.23 42.94 63.23 41.74 65.28 41.74 65.28 40.73 63.23 40.73 63.23 39.63 65.83 39.63 65.83 38.58"/><path d="M69.83,41.06a1.54,1.54,0,0,0,.25-.86,1.48,1.48,0,0,0-.68-1.36A2.53,2.53,0,0,0,68,38.56H66.71l.41,1h.55a1.85,1.85,0,0,1,.81.11.59.59,0,0,1,.31.54.66.66,0,0,1-.32.62,1.78,1.78,0,0,1-.76.11L69,44h1.14l-1-2.39a1.37,1.37,0,0,0,.69-.54"/><path d="M74.72,41.06A1.54,1.54,0,0,0,75,40.2a1.48,1.48,0,0,0-.68-1.36,2.53,2.53,0,0,0-1.37-.28H70.64V44H71.9V41.85h.91L73.64,44H75L74,41.6a1.3,1.3,0,0,0,.69-.55m-1.06-.85a.66.66,0,0,1-.31.61,1.72,1.72,0,0,1-.78.11h-.69V39.55h.65a2.08,2.08,0,0,1,.82.1.63.63,0,0,1,.3.56"/><path d="M244.15,52.83H0V7.63H244.15Zm-241-3.19H241V10.83H3.19Z"/><rect x="92.51" y="38.62" width="141.43" height="5.42"/><path d="M246.52,50.31a1.8,1.8,0,0,1,.25-.88,1.54,1.54,0,0,1,.27-.36,1.91,1.91,0,0,1,.35-.27,1.94,1.94,0,0,1,.42-.17,1.57,1.57,0,0,1,.91,0,1.94,1.94,0,0,1,.42.17,1.7,1.7,0,0,1,.62.63,1.57,1.57,0,0,1,.18.42,1.76,1.76,0,0,1,0,.91,1.65,1.65,0,0,1-.18.41,1.78,1.78,0,0,1-.62.63,1.94,1.94,0,0,1-.42.17,1.76,1.76,0,0,1-.91,0,1.94,1.94,0,0,1-.42-.17,1.6,1.6,0,0,1-.35-.28,1.31,1.31,0,0,1-.27-.35,1.65,1.65,0,0,1-.18-.41A2.34,2.34,0,0,1,246.52,50.31Zm.32,0a1.47,1.47,0,0,0,.41,1,1.45,1.45,0,0,0,1.58.31,1.57,1.57,0,0,0,.45-.31,1.44,1.44,0,0,0,.31-.46,1.6,1.6,0,0,0,.11-.57,1.75,1.75,0,0,0,0-.4,1.19,1.19,0,0,0-.15-.35,1.29,1.29,0,0,0-.22-.3A1.63,1.63,0,0,0,249,49a1.28,1.28,0,0,0-.34-.14,1.47,1.47,0,0,0-1.11.14,2.09,2.09,0,0,0-.29.23,1.61,1.61,0,0,0-.21.3,1.54,1.54,0,0,0-.15.35,1.76,1.76,0,0,0-.06.4Zm1.16.28v.77h-.5V49.24h.75a1.13,1.13,0,0,1,.65.16.55.55,0,0,1,.21.46.64.64,0,0,1-.11.36.63.63,0,0,1-.34.24.2.2,0,0,1,.09.07l.07.11.43.72h-.49a.15.15,0,0,1-.15-.07l-.34-.62-.05-.06h-.09Zm0-.36h.2a.68.68,0,0,0,.2,0l.12-.06a.21.21,0,0,0,.06-.1.29.29,0,0,0,0-.13v-.13a.15.15,0,0,0-.06-.09.24.24,0,0,0-.11-.06H248Z"/></g></svg>