<?xml version="1.0" encoding="utf-8"?>
<!-- Generator: Adobe Illustrator 24.0.3, SVG Export Plug-In . SVG Version: 6.00 Build 0)  -->
<svg version="1.1" id="Layer_1" xmlns="http://www.w3.org/2000/svg" xmlns:xlink="http://www.w3.org/1999/xlink" x="0px" y="0px"
	 viewBox="0 0 102.2 103.2" style="enable-background:new 0 0 102.2 103.2;" xml:space="preserve">
<style type="text/css">
	.st0{fill:#FFFFFF;}
	.st1{fill:#F78D1E;}
	.st2{fill:#F36B21;}
	.st3{fill:#F04B23;}
	.st4{fill:#E31E27;}
</style>
<path id="path4518" class="st0" d="M43.2,75c0.5-0.8,0.8-1.7,0.8-2.7c0.1-1.7-0.7-3.4-2.2-4.3c-1.4-0.7-2.9-1-4.4-0.9h-4.1l1.3,3
	h1.7c0.9-0.1,1.7,0,2.6,0.3c0.6,0.3,1,1,1,1.7c0.1,0.8-0.3,1.6-1,2c-0.8,0.3-1.6,0.4-2.4,0.3l4.1,9.7h3.6L41,76.7
	C41.9,76.4,42.7,75.8,43.2,75L43.2,75"/>
<path id="path4520" class="st0" d="M55.3,72.2c0.1,0.8-0.3,1.6-1,2c-0.8,0.3-1.6,0.4-2.4,0.3h-2.2v-4.4h2.1c0.9-0.1,1.7,0,2.6,0.3
	C55,70.8,55.4,71.5,55.3,72.2L55.3,72.2z M58.6,75c0.5-0.8,0.8-1.7,0.8-2.7c0.1-1.7-0.7-3.4-2.2-4.3c-1.4-0.7-2.9-1-4.4-0.9h-7.2
	v17.1h4v-6.8h2.9l2.6,6.8h4.4l-3.2-7.6C57.4,76.4,58.1,75.8,58.6,75L58.6,75"/>
<path id="path4522" class="st0" d="M73.3,67.1H61.1v17.1h12.2v-3.3h-8.2v-3.8h6.5v-3.2h-6.5v-3.5h8.2V67.1"/>
<path id="path4524" class="st0" d="M84.6,67.1v10l-5.7-10h-4.3v17.1h3.1V72.7h0.1l6.6,11.5h3.4V67.1H84.6"/>
<path id="path4526" class="st0" d="M102.2,67.1H90v17.1h12.2v-3.3H94v-3.8h6.5v-3.2H94v-3.5h8.2L102.2,67.1"/>
<path id="path4528" class="st0" d="M4.2,67.1v3.4h4.3v13.7h4V70.5h4.3v-3.4H4.2"/>
<path id="path4530" class="st0" d="M30.5,67.1H18.3v17.1h12.2v-3.3h-8.2v-3.8h6.5v-3.2h-6.5v-3.5h8.2V67.1"/>
<path id="path4532" class="st1" d="M33.8,4.7C23.4-2,10-1.5,0,5.8l2.5,5.7c10.6-8.4,25.9-6.6,34.3,4c6.4,8.1,7,19.3,1.6,28
	c-3.7,6-9.9,10.1-16.9,11.2l2.6,5.8c16.5-3.5,27.1-19.8,23.5-36.4C45.9,16.2,40.9,9.1,33.8,4.7L33.8,4.7"/>
<path id="path4534" class="st2" d="M33.7,14.8C26.1,7,14.1,6.6,6.5,10.9l2.4,5.4c5.8-3.3,14.9-2.9,20.4,2.8
	c6.4,6.6,6.3,17.1-0.3,23.5c-1.9,1.9-4.2,3.2-6.7,4l2.5,5.7c11.9-4.1,18.3-17,14.3-28.9C38,20.2,36.2,17.3,33.7,14.8L33.7,14.8"/>
<path id="path4536" class="st3" d="M11.7,17.2C10,18,8.4,19.1,7.1,20.5c-5.7,5.9-5.6,15.2,0.3,20.9c2.7,2.7,6.4,4.2,10.2,4.2
	c2.1,0,4.2-0.4,6.1-1.3l-0.2,0.1L21,38.7c-1.1,0.5-2.2,0.7-3.4,0.7c-4.7,0-8.6-3.9-8.5-8.7c0-3.4,2-6.4,5.1-7.8L11.7,17.2L11.7,17.2
	"/>
<path id="path4538" class="st4" d="M16.5,36.7c3.3,0.6,6.5-1.5,7.1-4.8c0.6-3.3-1.5-6.5-4.8-7.1c-3.3-0.6-6.5,1.5-7.1,4.8
	C11,32.9,13.2,36.1,16.5,36.7C16.5,36.7,16.5,36.7,16.5,36.7L16.5,36.7"/>
<path class="st0" d="M42.5,88.2h1.6c0.5,0,1,0.1,1.5,0.3c0.4,0.2,0.7,0.5,0.9,0.9c0.3,0.5,0.4,1,0.4,1.5c0,0.7-0.2,1.4-0.7,1.9
	c-0.5,0.5-1.2,0.8-1.9,0.8h-1.8V88.2z M43.7,89.2v3.3h0.5c0.4,0,0.8-0.2,1-0.5c0.2-0.4,0.3-0.8,0.3-1.2c0-0.3-0.1-0.6-0.2-0.9
	c-0.2-0.5-0.6-0.8-1.2-0.7L43.7,89.2z"/>
<path class="st0" d="M50.7,89.6l-1.2,3.8c-0.1,0.3-0.2,0.6-0.3,0.9c-0.1,0.2-0.2,0.3-0.4,0.4c-0.2,0.1-0.5,0.2-0.8,0.2
	c-0.2,0-0.4,0-0.6,0V94c0.2,0,0.4,0.1,0.6,0.1c0.2,0,0.3,0,0.5-0.1c0.1-0.1,0.2-0.2,0.2-0.4l-1.4-3.9h1.2l0.8,2.3l0.7-2.3L50.7,89.6
	z"/>
<path class="st0" d="M54.6,93.5h-1.2v-2.2c0-0.2,0-0.4,0-0.6c0-0.2-0.2-0.4-0.5-0.3c-0.4,0-0.6,0.3-0.6,0.9v2.2h-1.2v-4h1.1v0.7
	c0.1-0.2,0.3-0.5,0.5-0.6c0.2-0.1,0.4-0.1,0.6-0.1c0.3,0,0.6,0.1,0.9,0.3c0.3,0.4,0.4,0.8,0.3,1.3V93.5z"/>
<path class="st0" d="M59,93.5h-1.1c0-0.2-0.1-0.4-0.1-0.6c-0.1,0.2-0.3,0.4-0.6,0.6c-0.2,0.1-0.4,0.1-0.7,0.1
	c-0.3,0-0.6-0.1-0.9-0.3c-0.2-0.2-0.4-0.5-0.3-0.8c0-0.2,0.1-0.5,0.2-0.7c0.2-0.2,0.4-0.4,0.6-0.5c0.5-0.2,1.1-0.2,1.6-0.3v-0.2
	c0-0.3-0.2-0.5-0.4-0.6c0,0-0.1,0-0.1,0c-0.3,0-0.6,0.2-0.7,0.5c0,0,0,0,0,0.1l-1.1-0.1c0-0.4,0.3-0.8,0.6-1
	c0.4-0.2,0.8-0.3,1.2-0.3c0.3,0,0.5,0,0.8,0.1c0.2,0.1,0.4,0.1,0.6,0.3c0.1,0.1,0.2,0.2,0.3,0.4C59,90.5,59,90.7,59,91v1.8
	C59,93,59,93.3,59,93.5z M57.8,91.6c-0.8,0.1-1.2,0.3-1.2,0.7c0,0.1,0,0.3,0.1,0.4c0.1,0.1,0.2,0.2,0.4,0.2c0.2,0,0.4-0.1,0.5-0.3
	c0.1-0.2,0.2-0.4,0.2-0.6L57.8,91.6z"/>
<path class="st0" d="M65.6,93.5h-1.2v-2.2c0-0.2,0-0.4,0-0.6c0-0.1-0.1-0.2-0.1-0.2c-0.1-0.1-0.2-0.1-0.3-0.1
	c-0.1,0-0.3,0.1-0.4,0.1c-0.1,0.1-0.2,0.3-0.2,0.8v2.2h-1.2v-2.2c0-0.2,0-0.4,0-0.6c0-0.1-0.1-0.2-0.2-0.2c-0.1-0.1-0.2-0.1-0.3-0.1
	c-0.2,0-0.3,0.1-0.5,0.2c-0.1,0.2-0.2,0.5-0.1,0.7v2.2h-1.2v-4H61v0.6c0.2-0.4,0.6-0.7,1.1-0.7c0.5,0,0.9,0.3,1.1,0.7
	c0.2-0.4,0.7-0.7,1.1-0.7c0.2,0,0.5,0,0.7,0.2c0.2,0.1,0.3,0.2,0.4,0.4c0.1,0.3,0.1,0.6,0.1,0.9L65.6,93.5z"/>
<path class="st0" d="M67.7,88.1v1.2h-1.2v-1.2H67.7z M67.7,89.5v4h-1.2v-4H67.7z"/>
<path class="st0" d="M72.1,92c0,0.4-0.2,0.8-0.6,1.1c-0.3,0.3-0.8,0.4-1.2,0.4c-0.5,0-1-0.2-1.4-0.6c-0.4-0.4-0.6-0.9-0.5-1.5
	c0-0.6,0.2-1.1,0.5-1.5c0.4-0.4,0.9-0.6,1.4-0.6c0.4,0,0.9,0.1,1.2,0.4c0.3,0.3,0.5,0.7,0.5,1.1L71,91.1c0-0.5-0.2-0.7-0.6-0.7
	s-0.7,0.4-0.7,1.1c-0.1,0.3,0,0.7,0.2,1c0.1,0.1,0.3,0.2,0.5,0.2c0.4,0,0.6-0.2,0.7-0.7L72.1,92z"/>
<path class="st0" d="M76,88.2v5.3h-1.2v-5.3H76z"/>
<path class="st0" d="M80.5,93.5h-1.2v-2.2c0-0.2,0-0.4,0-0.6c0-0.2-0.2-0.4-0.4-0.3c-0.4,0-0.6,0.3-0.6,0.9v2.2H77v-4h1.1v0.7
	c0.1-0.2,0.3-0.5,0.5-0.6c0.2-0.1,0.4-0.1,0.6-0.1c0.3,0,0.6,0.1,0.9,0.3c0.3,0.3,0.5,0.8,0.4,1.3V93.5z"/>
<path class="st0" d="M84.4,90.5l-0.8,0.2c-0.1-0.3-0.4-0.6-0.8-0.5c-0.4,0-0.6,0.1-0.6,0.3c0,0.1,0,0.2,0.1,0.2
	c0.2,0.1,0.4,0.1,0.6,0.1c0.3,0,0.7,0.1,1,0.2c0.2,0.1,0.4,0.2,0.5,0.4c0.3,0.5,0.2,1.3-0.3,1.7c-0.4,0.3-0.8,0.4-1.3,0.4
	c-1,0-1.6-0.4-1.8-1.2l1-0.1c0.1,0.3,0.4,0.5,0.9,0.5c0.2,0,0.3,0,0.5-0.1c0.1,0,0.2-0.2,0.2-0.3c0-0.2-0.1-0.3-0.4-0.3
	c-0.6,0-1.1-0.2-1.6-0.5c-0.3-0.2-0.4-0.5-0.4-0.9c0-0.4,0.2-0.7,0.4-0.9c0.4-0.3,0.8-0.4,1.2-0.4c0.4,0,0.7,0.1,1,0.2
	C84.1,89.9,84.3,90.2,84.4,90.5z"/>
<path class="st0" d="M86.4,88.1v1.2h-1.2v-1.2H86.4z M86.4,89.5v4h-1.2v-4H86.4z"/>
<path class="st0" d="M91.3,89.6c-0.1,0-0.2,0-0.3,0c-0.2,0-0.4,0.1-0.4,0.3c0,0,0,0,0,0c0.2,0.2,0.3,0.5,0.3,0.8
	c0,0.4-0.2,0.7-0.5,0.9C89.9,91.9,89.5,92,89,92c-0.2,0-0.4,0-0.6-0.1c-0.1,0.1-0.2,0.2-0.2,0.3c0,0.1,0.1,0.2,0.2,0.3
	c0.3,0.1,0.5,0.1,0.8,0.1c0.4,0,0.8,0.1,1.3,0.1c0.2,0,0.4,0.2,0.6,0.3c0.2,0.2,0.2,0.4,0.2,0.6c0,0.4-0.2,0.7-0.5,0.9
	c-0.5,0.3-1.2,0.4-1.8,0.4c-0.6,0-1.1,0-1.6-0.3c-0.2-0.1-0.4-0.4-0.4-0.7c0-0.4,0.2-0.6,0.7-0.7c-0.3-0.1-0.5-0.4-0.5-0.7
	c0-0.4,0.3-0.7,0.8-0.9c-0.4-0.1-0.7-0.5-0.7-1c0-0.4,0.2-0.7,0.5-0.9c0.4-0.2,0.9-0.4,1.3-0.3c0.3,0,0.7,0.1,1,0.2
	c0-0.2,0.1-0.4,0.2-0.6c0.2-0.2,0.4-0.3,0.7-0.2c0.1,0,0.2,0,0.3,0L91.3,89.6z M88.3,93.5c-0.1,0-0.1,0-0.2,0.1
	C88,93.6,88,93.7,88,93.8c0,0.2,0.1,0.3,0.3,0.3c0.3,0,0.5,0.1,0.8,0.1c0.3,0,0.6,0,0.8-0.1c0.1,0,0.2-0.2,0.2-0.3
	c0-0.1-0.1-0.2-0.2-0.2c-0.4-0.1-0.7-0.1-1.1-0.1h-0.2h-0.3L88.3,93.5z M89,90.1c-0.2,0-0.3,0-0.5,0.2c-0.1,0.1-0.2,0.3-0.2,0.4
	c0,0.4,0.2,0.6,0.6,0.6c0.2,0,0.4-0.1,0.5-0.2c0.1-0.1,0.2-0.3,0.2-0.4c0-0.2-0.1-0.3-0.2-0.4C89.4,90.2,89.2,90.1,89,90.1z"/>
<path class="st0" d="M92.9,88.2v1.9c0.2-0.4,0.6-0.6,1.1-0.6c0.2,0,0.5,0.1,0.7,0.2c0.2,0.1,0.3,0.3,0.4,0.4
	c0.1,0.3,0.1,0.5,0.1,0.8v2.6H94v-2.2c0-0.2,0-0.4,0-0.6c0-0.1-0.1-0.2-0.1-0.2c-0.1-0.1-0.2-0.1-0.3-0.1c-0.2,0-0.3,0.1-0.4,0.2
	c-0.2,0.1-0.2,0.3-0.2,0.7v2.2h-1.2v-5.3H92.9z"/>
<path class="st0" d="M97.4,90.5v1.7c0,0.1,0,0.3,0.1,0.4c0.1,0.1,0.3,0.1,0.4,0.1h0.4v0.9c-0.2,0-0.5,0.1-0.7,0.1
	c-0.4,0-0.7-0.1-1-0.3c-0.2-0.3-0.4-0.6-0.3-1v-1.9h-0.6v-0.9h0.7l0.1-1.2l1-0.1v1.2h0.8v0.9L97.4,90.5z"/>
<path class="st0" d="M101.8,90.5l-0.8,0.2c-0.1-0.3-0.4-0.6-0.8-0.5c-0.4,0-0.6,0.1-0.6,0.3c0,0.1,0,0.2,0.1,0.2
	c0.2,0.1,0.4,0.1,0.6,0.1c0.3,0,0.7,0.1,1,0.2c0.2,0.1,0.4,0.2,0.5,0.4c0.1,0.2,0.2,0.4,0.2,0.7c0,0.4-0.2,0.8-0.5,1
	c-0.4,0.3-0.8,0.4-1.3,0.4c-1,0-1.6-0.4-1.8-1.2l1-0.1c0.1,0.3,0.4,0.5,0.9,0.5c0.2,0,0.3,0,0.5-0.1c0.1,0,0.2-0.2,0.2-0.3
	c0-0.2-0.2-0.3-0.4-0.3c-0.6,0-1.1-0.2-1.6-0.5c-0.3-0.2-0.4-0.5-0.4-0.9c0-0.4,0.2-0.7,0.4-0.9c0.3-0.3,0.8-0.4,1.2-0.4
	c0.4,0,0.7,0.1,1,0.2C101.6,89.9,101.8,90.2,101.8,90.5z"/>
<path class="st0" d="M44.6,97.8h2.5c0.3,0,0.7,0,1,0.2c0.2,0.1,0.4,0.3,0.6,0.5c0.1,0.2,0.2,0.5,0.2,0.7c0,0.6-0.4,1.1-1,1.2
	c0.7,0.1,1.2,0.8,1.1,1.6c-0.1,0.3-0.2,0.6-0.4,0.8c-0.4,0.3-0.9,0.5-1.5,0.4h-2.4V97.8z M45.9,98.7v1.2h1c0.3,0,0.6-0.1,0.7-0.2
	c0.1-0.1,0.1-0.2,0.1-0.4c0-0.1,0-0.2-0.1-0.3c-0.1-0.1-0.1-0.2-0.2-0.2c-0.2,0-0.3,0-0.5,0L45.9,98.7z M45.9,100.8v1.3h1
	c0.2,0,0.5,0,0.7-0.2c0.1-0.1,0.2-0.3,0.2-0.5c0-0.2-0.1-0.3-0.2-0.4c-0.2-0.1-0.4-0.2-0.7-0.2H45.9z"/>
<path class="st0" d="M53.3,101.3h-2.5v0.2c0,0.2,0.1,0.5,0.2,0.6c0.1,0.1,0.3,0.2,0.5,0.2c0.4,0,0.7-0.3,0.7-0.6c0,0,0,0,0,0l1,0.1
	c-0.2,0.8-0.9,1.4-1.8,1.4c-0.3,0-0.7-0.1-1-0.2c-0.3-0.2-0.5-0.4-0.7-0.7c-0.4-0.8-0.3-1.9,0.3-2.6c0.4-0.4,0.9-0.6,1.4-0.6
	c0.5,0,1,0.2,1.3,0.5C53.2,100.1,53.4,100.7,53.3,101.3z M50.8,100.6h1.4c0-0.5-0.3-0.8-0.7-0.8S50.8,100.1,50.8,100.6z"/>
<path class="st0" d="M55.3,100.1v1.7c0,0.1,0,0.3,0.1,0.4c0.1,0.1,0.2,0.1,0.4,0.1h0.4v0.9c-0.2,0-0.5,0.1-0.7,0.1
	c-0.4,0-0.7-0.1-1-0.3c-0.2-0.3-0.3-0.6-0.3-1v-1.8h-0.6v-0.9h0.7l0.1-1.2l1-0.1v1.2h0.8v0.9L55.3,100.1z"/>
<path class="st0" d="M58.2,100.1v1.7c0,0.1,0,0.3,0.1,0.4c0.1,0.1,0.2,0.1,0.4,0.1h0.4v0.9c-0.2,0-0.5,0.1-0.7,0.1
	c-0.4,0-0.7-0.1-1-0.3c-0.2-0.3-0.3-0.6-0.3-1v-1.8h-0.6v-0.9h0.7l0.1-1.2l1-0.1v1.2H59v0.9L58.2,100.1z"/>
<path class="st0" d="M63.2,101.3h-2.5c0,0.1,0,0.1,0,0.2c0,0.2,0.1,0.5,0.2,0.6c0.1,0.1,0.3,0.2,0.5,0.2c0.4,0,0.7-0.3,0.7-0.6
	l1.1,0.1c-0.2,0.8-0.9,1.4-1.8,1.4c-0.3,0-0.7-0.1-1-0.2c-0.3-0.2-0.5-0.4-0.7-0.7c-0.4-0.8-0.3-1.9,0.3-2.6c0.7-0.7,1.9-0.7,2.7,0
	c0,0,0,0,0,0C63,100.1,63.2,100.7,63.2,101.3z M60.6,100.6H62c0-0.5-0.3-0.8-0.7-0.8S60.7,100.1,60.6,100.6z"/>
<path class="st0" d="M65,103.1h-1.1v-3.9H65v0.7c0.2-0.6,0.4-0.8,0.8-0.8H66v1.2c-0.2,0-0.4,0-0.6,0.1c-0.2,0.1-0.3,0.2-0.3,0.4
	c-0.1,0.2-0.1,0.5-0.1,0.8L65,103.1z"/>
<path class="st0" d="M68.7,97.8h1.6c0.5,0,1,0.1,1.5,0.3c0.4,0.2,0.7,0.5,0.9,0.9c0.3,0.4,0.4,1,0.4,1.5c0,0.7-0.2,1.4-0.7,1.9
	c-0.5,0.5-1.2,0.8-1.9,0.8h-1.8V97.8z M69.9,98.8v3.3h0.5c0.4,0,0.8-0.2,1-0.5c0.2-0.4,0.3-0.8,0.3-1.2c0-0.3-0.1-0.6-0.2-0.9
	c-0.2-0.5-0.6-0.8-1.1-0.7H69.9z"/>
<path class="st0" d="M77.4,101.3h-2.5v0.2c0,0.2,0.1,0.5,0.2,0.6c0.1,0.1,0.3,0.2,0.5,0.2c0.4,0,0.7-0.3,0.7-0.6c0,0,0,0,0,0l1,0.1
	c-0.2,0.8-0.9,1.4-1.8,1.4c-0.3,0-0.7-0.1-1-0.2c-0.3-0.2-0.5-0.4-0.7-0.7c-0.4-0.8-0.3-1.9,0.3-2.6c0.4-0.4,0.9-0.6,1.4-0.6
	c0.5,0,1,0.2,1.3,0.5C77.2,100.1,77.4,100.7,77.4,101.3z M74.8,100.6h1.4c0-0.5-0.3-0.8-0.7-0.8S74.9,100.1,74.8,100.6z"/>
<path class="st0" d="M81.6,101.6c0,0.4-0.2,0.8-0.6,1.1c-0.4,0.3-0.8,0.5-1.3,0.4c-0.5,0-1-0.2-1.4-0.6c-0.4-0.4-0.5-0.9-0.5-1.5
	c0-0.5,0.2-1.1,0.5-1.5c0.4-0.4,0.9-0.6,1.4-0.6c0.4,0,0.9,0.1,1.2,0.4c0.3,0.3,0.5,0.7,0.5,1.1l-1.1,0.1c0-0.5-0.2-0.7-0.6-0.7
	s-0.7,0.4-0.7,1.1c-0.1,0.3,0,0.7,0.2,1c0.1,0.1,0.3,0.2,0.5,0.2c0.4,0,0.6-0.2,0.6-0.7L81.6,101.6z"/>
<path class="st0" d="M83.4,97.7v1.2h-1.2v-1.2H83.4z M83.4,99.2v3.9h-1.2v-3.9H83.4z"/>
<path class="st0" d="M87.3,100.1l-0.8,0.2c-0.1-0.3-0.4-0.6-0.8-0.5c-0.4,0-0.6,0.1-0.6,0.4c0,0.1,0,0.2,0.1,0.2
	c0.2,0.1,0.4,0.1,0.6,0.1c0.3,0,0.7,0.1,1,0.2c0.2,0.1,0.4,0.2,0.5,0.4c0.1,0.2,0.2,0.4,0.2,0.7c0,0.4-0.2,0.8-0.5,1
	c-0.4,0.3-0.8,0.4-1.3,0.4c-1,0-1.6-0.4-1.8-1.2l1-0.1c0.1,0.3,0.4,0.5,0.9,0.5c0.2,0,0.3,0,0.5-0.1c0.1,0,0.2-0.2,0.2-0.3
	c0-0.2-0.2-0.3-0.4-0.3c-0.6,0-1.1-0.2-1.6-0.5c-0.3-0.2-0.4-0.5-0.4-0.9c0-0.4,0.2-0.7,0.4-0.9c0.4-0.3,0.8-0.4,1.2-0.4
	c0.4,0,0.7,0.1,1,0.2C87,99.5,87.2,99.8,87.3,100.1z"/>
<path class="st0" d="M89.3,97.7v1.2h-1.2v-1.2H89.3z M89.3,99.2v3.9h-1.2v-3.9H89.3z"/>
<path class="st0" d="M91.9,99.1c0.5,0,1.1,0.2,1.4,0.6c0.3,0.4,0.5,0.9,0.5,1.5c0,0.5-0.2,1.1-0.5,1.5c-0.4,0.4-0.9,0.6-1.4,0.6
	c-0.5,0-1-0.2-1.3-0.6c-0.3-0.4-0.5-0.9-0.5-1.5c0-0.4,0.1-0.7,0.2-1.1c0.1-0.3,0.4-0.5,0.6-0.7C91.2,99.1,91.5,99,91.9,99.1z
	 M91.9,99.8c-0.2,0-0.4,0.1-0.5,0.2c-0.1,0.3-0.2,0.7-0.2,1c0,0.3,0,0.7,0.2,1c0.1,0.2,0.3,0.3,0.5,0.3c0.2,0,0.4-0.1,0.5-0.3
	c0.1-0.3,0.2-0.7,0.2-1c0-0.4,0-0.7-0.2-1.1C92.3,99.9,92.1,99.8,91.9,99.8L91.9,99.8z"/>
<path class="st0" d="M97.9,103.1h-1.2v-2.2c0-0.2,0-0.4,0-0.5c0-0.1-0.1-0.2-0.2-0.3c-0.1-0.1-0.2-0.1-0.3-0.1
	c-0.4,0-0.6,0.3-0.6,0.9v2.2h-1.2v-3.9h1.1v0.7c0.1-0.2,0.3-0.5,0.5-0.6c0.2-0.1,0.4-0.1,0.6-0.1c0.3,0,0.7,0.1,0.9,0.3
	c0.3,0.3,0.4,0.8,0.3,1.2L97.9,103.1z"/>
<path class="st0" d="M101.8,100.1l-0.8,0.2c-0.1-0.3-0.4-0.6-0.8-0.5c-0.4,0-0.6,0.1-0.6,0.4c0,0.1,0,0.2,0.1,0.2
	c0.2,0.1,0.4,0.1,0.6,0.1c0.3,0,0.7,0.1,1,0.2c0.2,0.1,0.4,0.2,0.5,0.4c0.1,0.2,0.2,0.4,0.2,0.7c0,0.4-0.2,0.8-0.5,1
	c-0.4,0.3-0.8,0.4-1.3,0.4c-1,0-1.6-0.4-1.8-1.2l1-0.1c0.1,0.3,0.4,0.5,0.9,0.5c0.2,0,0.3,0,0.5-0.1c0.1,0,0.2-0.2,0.2-0.3
	c0-0.2-0.2-0.3-0.4-0.3c-0.6,0-1.1-0.2-1.6-0.5c-0.3-0.2-0.4-0.5-0.4-0.9c0-0.4,0.2-0.7,0.4-0.9c0.4-0.3,0.8-0.4,1.2-0.4
	c0.4,0,0.7,0.1,1,0.2C101.6,99.5,101.8,99.8,101.8,100.1z"/>
</svg>
